<svg width="25" height="25" viewBox="0 0 25 25" fill="none" xmlns="http://www.w3.org/2000/svg">
  <rect width="25" height="25" rx="7" fill="#3E4D31" />
  <path fill-rule="evenodd" clip-rule="evenodd" d="M6.75 11H8.25C8.44891 11 8.63968 11.079 8.78033 11.2197C8.92098 11.3603 9 11.5511 9 11.75V13.25C9 13.4489 8.92098 13.6397 8.78033 13.7803C8.63968 13.921 8.44891 14 8.25 14H6.75C6.55109 14 6.36032 13.921 6.21967 13.7803C6.07902 13.6397 6 13.4489 6 13.25V11.75C6 11.5511 6.07902 11.3603 6.21967 11.2197C6.36032 11.079 6.55109 11 6.75 11ZM6.75 16H8.25C8.44891 16 8.63968 16.079 8.78033 16.2197C8.92098 16.3603 9 16.5511 9 16.75V18.25C9 18.4489 8.92098 18.6397 8.78033 18.7803C8.63968 18.921 8.44891 19 8.25 19H6.75C6.55109 19 6.36032 18.921 6.21967 18.7803C6.07902 18.6397 6 18.4489 6 18.25V16.75C6 16.5511 6.07902 16.3603 6.21967 16.2197C6.36032 16.079 6.55109 16 6.75 16ZM6.75 6H8.25C8.44891 6 8.63968 6.07902 8.78033 6.21967C8.92098 6.36032 9 6.55109 9 6.75V8.25C9 8.44891 8.92098 8.63968 8.78033 8.78033C8.63968 8.92098 8.44891 9 8.25 9H6.75C6.55109 9 6.36032 8.92098 6.21967 8.78033C6.07902 8.63968 6 8.44891 6 8.25V6.75C6 6.55109 6.07902 6.36032 6.21967 6.21967C6.36032 6.07902 6.55109 6 6.75 6ZM11.75 11H13.25C13.4489 11 13.6397 11.079 13.7803 11.2197C13.921 11.3603 14 11.5511 14 11.75V13.25C14 13.4489 13.921 13.6397 13.7803 13.7803C13.6397 13.921 13.4489 14 13.25 14H11.75C11.5511 14 11.3603 13.921 11.2197 13.7803C11.079 13.6397 11 13.4489 11 13.25V11.75C11 11.5511 11.079 11.3603 11.2197 11.2197C11.3603 11.079 11.5511 11 11.75 11ZM11.75 16H13.25C13.4489 16 13.6397 16.079 13.7803 16.2197C13.921 16.3603 14 16.5511 14 16.75V18.25C14 18.4489 13.921 18.6397 13.7803 18.7803C13.6397 18.921 13.4489 19 13.25 19H11.75C11.5511 19 11.3603 18.921 11.2197 18.7803C11.079 18.6397 11 18.4489 11 18.25V16.75C11 16.5511 11.079 16.3603 11.2197 16.2197C11.3603 16.079 11.5511 16 11.75 16ZM11.75 6H13.25C13.4489 6 13.6397 6.07902 13.7803 6.21967C13.921 6.36032 14 6.55109 14 6.75V8.25C14 8.44891 13.921 8.63968 13.7803 8.78033C13.6397 8.92098 13.4489 9 13.25 9H11.75C11.5511 9 11.3603 8.92098 11.2197 8.78033C11.079 8.63968 11 8.44891 11 8.25V6.75C11 6.55109 11.079 6.36032 11.2197 6.21967C11.3603 6.07902 11.5511 6 11.75 6ZM16.75 11H18.25C18.4489 11 18.6397 11.079 18.7803 11.2197C18.921 11.3603 19 11.5511 19 11.75V13.25C19 13.4489 18.921 13.6397 18.7803 13.7803C18.6397 13.921 18.4489 14 18.25 14H16.75C16.5511 14 16.3603 13.921 16.2197 13.7803C16.079 13.6397 16 13.4489 16 13.25V11.75C16 11.5511 16.079 11.3603 16.2197 11.2197C16.3603 11.079 16.5511 11 16.75 11ZM16.75 16H18.25C18.4489 16 18.6397 16.079 18.7803 16.2197C18.921 16.3603 19 16.5511 19 16.75V18.25C19 18.4489 18.921 18.6397 18.7803 18.7803C18.6397 18.921 18.4489 19 18.25 19H16.75C16.5511 19 16.3603 18.921 16.2197 18.7803C16.079 18.6397 16 18.4489 16 18.25V16.75C16 16.5511 16.079 16.3603 16.2197 16.2197C16.3603 16.079 16.5511 16 16.75 16ZM16.75 6H18.25C18.4489 6 18.6397 6.07902 18.7803 6.21967C18.921 6.36032 19 6.55109 19 6.75V8.25C19 8.44891 18.921 8.63968 18.7803 8.78033C18.6397 8.92098 18.4489 9 18.25 9H16.75C16.5511 9 16.3603 8.92098 16.2197 8.78033C16.079 8.63968 16 8.44891 16 8.25V6.75C16 6.55109 16.079 6.36032 16.2197 6.21967C16.3603 6.07902 16.5511 6 16.75 6Z" fill="white" />
</svg>