<svg width="25" height="25" viewBox="0 0 25 25" fill="none" xmlns="http://www.w3.org/2000/svg">
  <rect width="25" height="25" rx="7" fill="#D9D9D9" />
  <path fill-rule="evenodd" clip-rule="evenodd" d="M6.5 11H8.5C8.63261 11 8.75979 11.0527 8.85355 11.1464C8.94732 11.2402 9 11.3674 9 11.5V13.5C9 13.6326 8.94732 13.7598 8.85355 13.8536C8.75979 13.9473 8.63261 14 8.5 14H6.5C6.36739 14 6.24021 13.9473 6.14645 13.8536C6.05268 13.7598 6 13.6326 6 13.5V11.5C6 11.3674 6.05268 11.2402 6.14645 11.1464C6.24021 11.0527 6.36739 11 6.5 11ZM6.5 16H8.5C8.63261 16 8.75979 16.0527 8.85355 16.1464C8.94732 16.2402 9 16.3674 9 16.5V18.5C9 18.6326 8.94732 18.7598 8.85355 18.8536C8.75979 18.9473 8.63261 19 8.5 19H6.5C6.36739 19 6.24021 18.9473 6.14645 18.8536C6.05268 18.7598 6 18.6326 6 18.5V16.5C6 16.3674 6.05268 16.2402 6.14645 16.1464C6.24021 16.0527 6.36739 16 6.5 16ZM6.5 6H8.5C8.63261 6 8.75979 6.05268 8.85355 6.14645C8.94732 6.24021 9 6.36739 9 6.5V8.5C9 8.63261 8.94732 8.75979 8.85355 8.85355C8.75979 8.94732 8.63261 9 8.5 9H6.5C6.36739 9 6.24021 8.94732 6.14645 8.85355C6.05268 8.75979 6 8.63261 6 8.5V6.5C6 6.36739 6.05268 6.24021 6.14645 6.14645C6.24021 6.05268 6.36739 6 6.5 6ZM11.5 11H18.5C18.6326 11 18.7598 11.0527 18.8536 11.1464C18.9473 11.2402 19 11.3674 19 11.5V13.5C19 13.6326 18.9473 13.7598 18.8536 13.8536C18.7598 13.9473 18.6326 14 18.5 14H11.5C11.3674 14 11.2402 13.9473 11.1464 13.8536C11.0527 13.7598 11 13.6326 11 13.5V11.5C11 11.3674 11.0527 11.2402 11.1464 11.1464C11.2402 11.0527 11.3674 11 11.5 11ZM11.5 16H18.5C18.6326 16 18.7598 16.0527 18.8536 16.1464C18.9473 16.2402 19 16.3674 19 16.5V18.5C19 18.6326 18.9473 18.7598 18.8536 18.8536C18.7598 18.9473 18.6326 19 18.5 19H11.5C11.3674 19 11.2402 18.9473 11.1464 18.8536C11.0527 18.7598 11 18.6326 11 18.5V16.5C11 16.3674 11.0527 16.2402 11.1464 16.1464C11.2402 16.0527 11.3674 16 11.5 16ZM11.5 6H18.5C18.6326 6 18.7598 6.05268 18.8536 6.14645C18.9473 6.24021 19 6.36739 19 6.5V8.5C19 8.63261 18.9473 8.75979 18.8536 8.85355C18.7598 8.94732 18.6326 9 18.5 9H11.5C11.3674 9 11.2402 8.94732 11.1464 8.85355C11.0527 8.75979 11 8.63261 11 8.5V6.5C11 6.36739 11.0527 6.24021 11.1464 6.14645C11.2402 6.05268 11.3674 6 11.5 6Z" fill="#222222" />
</svg>