<svg width="49" height="49" viewBox="0 0 49 49" fill="none" xmlns="http://www.w3.org/2000/svg">
  <circle cx="24.5" cy="24.5" r="24.5" fill="url(#paint0_linear_3819_5)" fill-opacity="0.68" />
  <path d="M31.2173 24.7995H28.3512C28.0076 24.7995 27.7227 24.5146 27.7227 24.171V18.313C27.7227 17.6929 27.9657 17.1146 28.4015 16.6788C28.8373 16.243 29.4155 16 30.0357 16H30.0441C31.0916 16.0084 32.0805 16.419 32.8348 17.1649C33.589 17.9275 33.9996 18.9332 33.9996 19.9807V22.0088C34.008 23.6765 32.885 24.7995 31.2173 24.7995ZM28.9797 23.5424H31.2173C32.1895 23.5424 32.7509 22.9809 32.7509 22.0088V19.9807C32.7509 19.26 32.466 18.5728 31.9548 18.0532C31.4436 17.5504 30.7564 17.2655 30.0441 17.2571H30.0357C29.7591 17.2571 29.4909 17.366 29.2898 17.5672C29.0887 17.7683 28.9797 18.0281 28.9797 18.313V23.5424Z" fill="white" />
  <path d="M22.4865 34.5041C22.0926 34.5041 21.7239 34.3533 21.4473 34.0683L20.0562 32.6688C20.0204 32.6321 19.9722 32.6101 19.9211 32.607C19.87 32.6039 19.8195 32.62 19.7796 32.652L18.3465 33.7247C17.9024 34.0599 17.3157 34.1186 16.8129 33.8672C16.3101 33.6158 16 33.113 16 32.5515V19.9807C16 17.4498 17.4498 16 19.9807 16H30.0373C30.3809 16 30.6659 16.2849 30.6659 16.6285C30.6659 16.9721 30.3809 17.2571 30.0373 17.2571C29.4591 17.2571 28.9898 17.7264 28.9898 18.3046V32.5515C28.9898 33.113 28.6797 33.6158 28.1768 33.8672C27.674 34.1186 27.0874 34.0683 26.6432 33.7331L25.2102 32.6604C25.171 32.6302 25.1223 32.6152 25.0729 32.6183C25.0236 32.6214 24.977 32.6423 24.942 32.6772L23.5341 34.0851C23.2491 34.3533 22.8804 34.5041 22.4865 34.5041ZM19.8969 31.3531C20.2824 31.3531 20.6596 31.4955 20.9445 31.7888L22.3356 33.1884C22.3859 33.2387 22.453 33.247 22.4865 33.247C22.4781 33.2303 22.5871 33.2387 22.6373 33.1884L24.0453 31.7805C24.5649 31.2609 25.3861 31.2106 25.9644 31.6548L27.3891 32.7191C27.4813 32.7861 27.5651 32.761 27.607 32.7358C27.6489 32.7107 27.7243 32.6604 27.7243 32.5515V18.3046C27.7243 17.9275 27.8165 17.5672 27.9757 17.2571H19.9724C18.1119 17.2571 17.2487 18.1203 17.2487 19.9807V32.5515C17.2487 32.6688 17.3241 32.7191 17.366 32.7442C17.4163 32.7694 17.5001 32.7861 17.5839 32.7191L19.017 31.6464C19.2768 31.4536 19.5868 31.3531 19.8969 31.3531Z" fill="white" />
  <path d="M24.7925 23.9602H20.1832C19.8396 23.9602 19.5547 23.6753 19.5547 23.3317C19.5547 22.9881 19.8396 22.7031 20.1832 22.7031H24.7925C25.1361 22.7031 25.421 22.9881 25.421 23.3317C25.421 23.6753 25.1361 23.9602 24.7925 23.9602Z" fill="white" />
  <defs>
    <linearGradient id="paint0_linear_3819_5" x1="-1.1878e-07" y1="31.2449" x2="50.4076" y2="28.6621" gradientUnits="userSpaceOnUse">
      <stop stop-color="#5F6308" />
      <stop offset="1" stop-color="#302F02" />
    </linearGradient>
  </defs>
</svg>
