<svg width="49" height="49" viewBox="0 0 49 49" fill="none" xmlns="http://www.w3.org/2000/svg">
  <circle cx="24.5" cy="24.5" r="24.5" fill="url(#paint0_linear_3819_6)" fill-opacity="0.68" />
  <path d="M36.7268 24.8583L35.2127 23.4538C35.1094 23.358 35.0303 23.2393 34.9816 23.1072L33.7925 19.8782C33.6224 19.4232 33.3177 19.0308 32.919 18.7533C32.5202 18.4758 32.0464 18.3264 31.5606 18.3251H29.7589V17.8196C29.7589 17.6023 29.6726 17.3938 29.5189 17.2401C29.3652 17.0864 29.1567 17 28.9394 17H18.0511C17.8891 16.9981 17.7327 17.0595 17.6153 17.1711C17.4978 17.2826 17.4284 17.4356 17.422 17.5975C17.4205 17.6784 17.4351 17.7588 17.465 17.834C17.4949 17.9093 17.5396 17.9777 17.5963 18.0355C17.6529 18.0933 17.7206 18.1392 17.7952 18.1705C17.8698 18.2018 17.95 18.2179 18.0309 18.218H28.541V23.5021C28.541 23.7195 28.6273 23.928 28.781 24.0817C28.9347 24.2354 29.1432 24.3217 29.3606 24.3217H34.3101L35.7801 25.6446V30.5795H34.4474C34.3147 29.9988 33.9888 29.4803 33.523 29.109C33.0573 28.7376 32.4792 28.5354 31.8836 28.5354C31.2879 28.5354 30.7099 28.7376 30.2441 29.109C29.7783 29.4803 29.4524 29.9988 29.3197 30.5795H25.2188C25.0861 29.9988 24.7602 29.4803 24.2944 29.109C23.8287 28.7376 23.2506 28.5354 22.655 28.5354C22.0593 28.5354 21.4812 28.7376 21.0155 29.109C20.5497 29.4803 20.2238 29.9988 20.0911 30.5795H18.0511C17.889 30.5776 17.7327 30.6389 17.6152 30.7505C17.4977 30.8621 17.4284 31.0152 17.422 31.1771C17.4205 31.258 17.4351 31.3384 17.465 31.4136C17.4949 31.4888 17.5396 31.5573 17.5963 31.6151C17.6529 31.6728 17.7206 31.7187 17.7952 31.75C17.8698 31.7814 17.95 31.7975 18.0309 31.7975H20.1013C20.2424 32.3681 20.5705 32.875 21.0333 33.2374C21.4962 33.5997 22.067 33.7966 22.6548 33.7966C23.2426 33.7966 23.8134 33.5997 24.2762 33.2374C24.7391 32.875 25.0672 32.3681 25.2082 31.7975H29.33C29.4711 32.3681 29.7992 32.875 30.262 33.2374C30.7249 33.5997 31.2957 33.7966 31.8835 33.7966C32.4713 33.7966 33.0421 33.5997 33.5049 33.2374C33.9678 32.875 34.2959 32.3681 34.4369 31.7975H36.1785C36.3959 31.7975 36.6043 31.7111 36.758 31.5575C36.9117 31.4038 36.9981 31.1953 36.9981 30.978V25.4674C36.998 25.3526 36.9738 25.239 36.9271 25.1341C36.8804 25.0291 36.8122 24.9352 36.7268 24.8583ZM29.7589 23.1039V19.5429H31.5606C31.7978 19.5436 32.0292 19.6165 32.2238 19.752C32.4185 19.8875 32.5673 20.0791 32.6503 20.3013L33.6884 23.1039H29.7589ZM22.6548 32.5785C22.3754 32.5785 22.1023 32.4956 21.87 32.3404C21.6377 32.1852 21.4567 31.9646 21.3497 31.7065C21.2428 31.4483 21.2149 31.1643 21.2694 30.8903C21.3239 30.6163 21.4584 30.3646 21.656 30.167C21.8535 29.9695 22.1052 29.8349 22.3793 29.7804C22.6533 29.7259 22.9373 29.7539 23.1954 29.8609C23.4535 29.9678 23.6741 30.1488 23.8294 30.3811C23.9846 30.6134 24.0674 30.8866 24.0674 31.1659C24.067 31.5405 23.918 31.8995 23.6532 32.1643C23.3884 32.4291 23.0293 32.5781 22.6548 32.5785ZM31.8835 32.5785C31.6041 32.5785 31.331 32.4957 31.0987 32.3404C30.8664 32.1852 30.6853 31.9646 30.5784 31.7065C30.4715 31.4484 30.4435 31.1643 30.498 30.8903C30.5525 30.6163 30.6871 30.3646 30.8846 30.167C31.0822 29.9695 31.3339 29.835 31.6079 29.7805C31.8819 29.7259 32.1659 29.7539 32.4241 29.8608C32.6822 29.9678 32.9028 30.1488 33.058 30.3811C33.2132 30.6134 33.2961 30.8866 33.2961 31.1659C33.2956 31.5404 33.1467 31.8995 32.8819 32.1643C32.617 32.4291 32.258 32.5781 31.8835 32.5785Z" fill="white" />
  <path d="M15.4315 21.6243H22.3377C22.4992 21.6243 22.6541 21.5601 22.7683 21.4459C22.8826 21.3317 22.9467 21.1768 22.9467 21.0153C22.9467 20.8538 22.8826 20.6988 22.7683 20.5846C22.6541 20.4704 22.4992 20.4062 22.3377 20.4062H15.4315C15.27 20.4062 15.1151 20.4704 15.0009 20.5846C14.8866 20.6988 14.8225 20.8538 14.8225 21.0153C14.8225 21.1768 14.8866 21.3317 15.0009 21.4459C15.1151 21.5601 15.27 21.6243 15.4315 21.6243ZM22.9467 24.3983C22.9467 24.2367 22.8826 24.0818 22.7683 23.9676C22.6541 23.8534 22.4992 23.7892 22.3377 23.7892H12.6145C12.534 23.7885 12.4543 23.8037 12.3797 23.834C12.3052 23.8643 12.2374 23.9091 12.1803 23.9657C12.1232 24.0223 12.0778 24.0897 12.0469 24.1639C12.0159 24.2382 12 24.3178 12 24.3982C12 24.4787 12.0159 24.5583 12.0469 24.6326C12.0778 24.7068 12.1232 24.7742 12.1803 24.8308C12.2374 24.8874 12.3052 24.9322 12.3797 24.9625C12.4543 24.9928 12.534 25.008 12.6145 25.0073H22.3377C22.4992 25.0073 22.6541 24.9431 22.7683 24.8289C22.8825 24.7147 22.9467 24.5598 22.9467 24.3983ZM19.0905 27.7813C19.0905 27.7013 19.0748 27.6221 19.0441 27.5482C19.0135 27.4743 18.9687 27.4072 18.9121 27.3507C18.8556 27.2941 18.7885 27.2492 18.7146 27.2186C18.6407 27.188 18.5615 27.1723 18.4815 27.1723H14.2486C14.0881 27.1737 13.9346 27.2385 13.8215 27.3526C13.7085 27.4666 13.6451 27.6207 13.6451 27.7813C13.6451 27.9419 13.7085 28.096 13.8215 28.21C13.9346 28.3241 14.0881 28.3889 14.2486 28.3903H18.4815C18.643 28.3903 18.7979 28.3261 18.9121 28.2119C19.0263 28.0977 19.0905 27.9428 19.0905 27.7813Z" fill="white" />
  <defs>
    <linearGradient id="paint0_linear_3819_6" x1="-1.1878e-07" y1="31.2449" x2="50.4076" y2="28.6621" gradientUnits="userSpaceOnUse">
      <stop stop-color="#5F6308" />
      <stop offset="1" stop-color="#302F02" />
    </linearGradient>
  </defs>
</svg>