<svg width="10" height="10" viewBox="0 0 10 10" fill="none" xmlns="http://www.w3.org/2000/svg">
  <path d="M4.50823 0.463525C4.65791 0.0028702 5.30962 0.00286973 5.45929 0.463525L6.22229 2.81179C6.28923 3.0178 6.4812 3.15728 6.69782 3.15728L9.16693 3.15728C9.65129 3.15728 9.85268 3.77709 9.46082 4.06179L7.46327 5.5131C7.28802 5.64042 7.2147 5.86611 7.28163 6.07212L8.04463 8.42039C8.19431 8.88104 7.66707 9.2641 7.27521 8.9794L5.27766 7.52809C5.10241 7.40077 4.86511 7.40077 4.68987 7.52809L2.69232 8.9794C2.30046 9.2641 1.77322 8.88104 1.92289 8.42039L2.68589 6.07212C2.75283 5.86611 2.6795 5.64042 2.50426 5.5131L0.506702 4.06179C0.114845 3.77709 0.316233 3.15728 0.800594 3.15728L3.26971 3.15728C3.48632 3.15728 3.6783 3.0178 3.74524 2.81179L4.50823 0.463525Z" fill="#FFCA0E" />
</svg>