<svg width="28" height="29" viewBox="0 0 28 29" fill="none" xmlns="http://www.w3.org/2000/svg">
  <path d="M14 28.4004C21.732 28.4004 28 22.1324 28 14.4004C28 6.6684 21.732 0.400391 14 0.400391C6.26801 0.400391 0 6.6684 0 14.4004C0 22.1324 6.26801 28.4004 14 28.4004Z" fill="#F4F4F4" />
  <path d="M7.6149 12.9713L19.3287 8.45481C19.8724 8.2584 20.3472 8.58744 20.171 9.40953L20.172 9.40852L18.1776 18.8049C18.0297 19.471 17.6339 19.633 17.0801 19.3192L14.0428 17.0807L12.5778 18.492C12.4158 18.654 12.2792 18.7907 11.9653 18.7907L12.181 15.6997L17.81 10.6143C18.0551 10.3987 17.7554 10.2772 17.4324 10.4918L10.476 14.8716L7.47721 13.9361C6.82622 13.7296 6.81205 13.2851 7.6149 12.9713Z" fill="#039BE5" />
</svg>