<svg width="29" height="28" viewBox="0 0 29 28" fill="none" xmlns="http://www.w3.org/2000/svg">
  <path d="M14.8359 28C22.5679 28 28.8359 21.732 28.8359 14C28.8359 6.26801 22.5679 0 14.8359 0C7.10395 0 0.835938 6.26801 0.835938 14C0.835938 21.732 7.10395 28 14.8359 28Z" fill="#F4F4F4" />
  <path d="M20.1563 8.50683C18.964 7.30263 17.3806 6.56414 15.6918 6.42455C14.0029 6.28497 12.3198 6.75348 10.946 7.74558C9.57214 8.73769 8.59806 10.1881 8.19943 11.8351C7.8008 13.4822 8.00385 15.2174 8.77197 16.728L8.01797 20.3886C8.01014 20.425 8.00992 20.4627 8.01732 20.4992C8.02471 20.5357 8.03956 20.5703 8.06094 20.6009C8.09226 20.6472 8.13697 20.6828 8.18909 20.7031C8.24121 20.7233 8.29827 20.7272 8.35265 20.7142L11.9404 19.8638C13.4466 20.6125 15.1697 20.8025 16.8029 20.4C18.4361 19.9975 19.8735 19.0286 20.8594 17.6658C21.8454 16.303 22.3158 14.6345 22.187 12.9574C22.0583 11.2803 21.3387 9.7032 20.1563 8.50683ZM19.0376 17.4351C18.2127 18.2577 17.1504 18.8007 16.0005 18.9876C14.8506 19.1746 13.671 18.9959 12.6279 18.4769L12.1279 18.2295L9.92837 18.7504L9.93489 18.723L10.3907 16.5092L10.1459 16.026C9.61292 14.9794 9.42492 13.7909 9.60878 12.6309C9.79265 11.4708 10.339 10.3987 11.1694 9.56816C12.2129 8.52498 13.628 7.93896 15.1035 7.93896C16.579 7.93896 17.9941 8.52498 19.0376 9.56816C19.0465 9.57835 19.0561 9.58793 19.0663 9.59681C20.0969 10.6427 20.6722 12.0536 20.6668 13.5219C20.6614 14.9901 20.0758 16.3968 19.0376 17.4351Z" fill="#29A71A" />
  <path d="M18.8425 15.8106C18.573 16.2351 18.1471 16.7547 17.6119 16.8836C16.6743 17.1102 15.2353 16.8914 13.4447 15.222L13.4226 15.2024C11.8481 13.7426 11.4392 12.5276 11.5382 11.5639C11.5929 11.017 12.0487 10.5221 12.4328 10.1992C12.4936 10.1473 12.5656 10.1104 12.6432 10.0914C12.7207 10.0724 12.8016 10.0718 12.8795 10.0896C12.9573 10.1074 13.0299 10.1433 13.0914 10.1942C13.1529 10.2451 13.2016 10.3097 13.2337 10.3828L13.8132 11.685C13.8509 11.7695 13.8649 11.8626 13.8536 11.9543C13.8424 12.0461 13.8064 12.1331 13.7494 12.2059L13.4564 12.5862C13.3935 12.6647 13.3556 12.7602 13.3475 12.8605C13.3394 12.9608 13.3614 13.0612 13.4108 13.1488C13.5749 13.4366 13.9682 13.8598 14.4045 14.2518C14.8941 14.6945 15.4371 15.0995 15.7809 15.2376C15.8729 15.2752 15.9741 15.2843 16.0713 15.2639C16.1686 15.2435 16.2575 15.1944 16.3266 15.123L16.6665 14.7805C16.7321 14.7158 16.8136 14.6697 16.9028 14.6468C16.9921 14.6239 17.0857 14.6251 17.1744 14.6503L18.5508 15.0409C18.6268 15.0642 18.6964 15.1046 18.7543 15.1589C18.8123 15.2132 18.857 15.2801 18.8852 15.3543C18.9133 15.4286 18.9241 15.5083 18.9167 15.5874C18.9093 15.6665 18.884 15.7428 18.8425 15.8106Z" fill="#29A71A" />
</svg>